<svg xmlns="http://www.w3.org/2000/svg" width="1200" height="500" fill="#fff">
    <path d="M563.205 404.512l-.146-80.155h-200.9L362.27 2.64l-89.218-.005v18.639h10.006-10.006v17.999h1.278c4.611.355 8.479 2.203 11.603 5.539 3.546 3.479 5.32 7.74 5.32 12.782 0 5.112-1.775 9.407-5.32 12.887-3.124 3.195-6.991 4.97-11.603 5.326h-1.278v18.427h10.006-10.006v18.105h1.278c4.611.354 8.479 2.167 11.603 5.432 3.546 3.551 5.32 7.813 5.32 12.781 0 5.113-1.775 9.445-5.32 12.996-3.124 3.124-6.991 4.863-11.603 5.22h-1.278v18.639h10.006-10.006v17.895h1.278c4.611.354 8.479 2.165 11.603 5.43 3.546 3.551 5.32 7.813 5.32 12.783 0 5.108-1.775 9.44-5.32 12.994-3.124 3.125-6.991 4.896-11.603 5.325h-1.278v36.425h1.278c4.611.355 8.479 2.204 11.603 5.541 3.546 3.478 5.32 7.735 5.32 12.778 0 5.041-1.775 9.338-5.32 12.888-3.124 3.194-6.991 4.971-11.603 5.327h-1.278v18.428h10.006-10.006v17.998h1.278c4.611.427 8.479 2.272 11.603 5.54 3.546 3.547 5.32 7.81 5.32 12.777 0 5.112-1.775 9.407-5.32 12.89-3.124 3.194-6.991 4.972-11.603 5.326h-1.278v18.64l.294 18.118h289.859v.002z"/>
    <path d="M283.605 404.512l-119.963-.013c-9.992 0-18.093-8.105-18.093-18.105 0-9.999 8.101-18.105 18.093-18.105h119.416c9.992 0 18.094 8.106 18.094 18.105-.002 10-7.555 18.118-17.547 18.118zm-167.433-.011h-13.624c-9.992 0-18.093-8.106-18.093-18.106 0-9.998 8.101-18.105 18.094-18.105h13.623c9.993 0 18.094 8.107 18.094 18.105 0 9.999-8.1 18.106-18.094 18.106zm166.885-73.175h-33.739c-9.992 0-18.094-8.104-18.094-18.104 0-10.001 8.102-18.107 18.094-18.107h33.739c9.992 0 18.094 8.106 18.094 18.107-.001 10-8.102 18.104-18.094 18.104zm-141.341 0H36.883c-9.993 0-18.093-8.104-18.093-18.104 0-10.001 8.101-18.107 18.093-18.107h104.833c9.992 0 18.093 8.106 18.093 18.107.001 10-8.1 18.104-18.093 18.104zm131.335-72.959H131.714c-9.993 0-18.094-8.106-18.094-18.105 0-10 8.101-18.105 18.094-18.105h141.338c9.992 0 18.094 8.106 18.094 18.105s-8.102 18.105-18.095 18.105zm-197.853 0H62.425c-9.992 0-18.093-8.106-18.093-18.105 0-10 8.101-18.105 18.093-18.105h12.773c9.992 0 18.092 8.106 18.092 18.105s-8.1 18.105-18.092 18.105zm207.859-72.852h-47.362c-9.992 0-18.093-8.106-18.093-18.106s8.101-18.105 18.093-18.105h47.362c9.992 0 18.094 8.105 18.094 18.105-.001 9.998-8.102 18.106-18.094 18.106zm-103.877 0h-75.671c-9.992 0-18.094-8.106-18.094-18.106s8.102-18.105 18.094-18.105h75.672c9.993 0 18.094 8.105 18.094 18.105-.001 9.998-8.102 18.106-18.095 18.106zm103.877-73.175h-96.64c-9.991 0-18.094-8.107-18.094-18.105 0-10.001 8.102-18.105 18.094-18.105h96.64c9.992 0 18.094 8.104 18.094 18.105-.001 9.998-8.102 18.105-18.094 18.105zm0-72.959h-78.439c-9.992 0-18.093-8.108-18.093-18.107S194.949 2.64 204.941 2.64h78.664c9.993 0 17.545 8.635 17.545 18.634s-8.101 18.107-18.093 18.107zm-130.378 0h-10.962c-9.991 0-18.093-8.108-18.093-18.107S131.725 3.17 141.717 3.17h10.962c9.992 0 18.093 8.106 18.093 18.104-.001 9.999-8.101 18.107-18.093 18.107zm-84.824 0H19.534c-9.993 0-18.094-8.108-18.094-18.107S9.541 3.169 19.534 3.169h48.321c9.991 0 18.092 8.106 18.092 18.104 0 10-8.1 18.108-18.092 18.108zm617.81 453.403c9.976-3.063 18.897-8.021 26.769-14.896 7.86-6.873 15.057-15.754 21.586-26.636 6.521-10.887 12.664-24.162 18.422-39.816L871.023 96.924h-90.951l-67.352 209.1-70.229-209.1h-92.68l120.887 308.21c-3.84 7.634-7.969 12.89-12.376 15.752-4.417 2.865-10.459 4.297-18.134 4.297-5.756 0-11.998-1.145-18.709-3.438-6.717-2.29-12.953-5.154-18.707-8.594l-29.359 63.019a169.255 169.255 0 0 0 35.115 15.468c12.277 3.813 26.479 5.729 42.598 5.729 13.042-.002 24.556-1.53 34.539-4.583zM999.1 328.939c-9.787-4.582-18.332-10.785-25.617-18.617-7.295-7.822-12.862-16.803-16.692-26.925-3.842-10.115-5.757-20.91-5.757-32.368v-1.146c0-11.457 1.816-22.244 5.468-32.368 3.644-10.114 8.924-18.995 15.83-26.639 6.907-7.635 15.256-13.651 25.043-18.047 9.785-4.387 21.01-6.588 33.674-6.588 11.892 0 22.83 2.292 32.813 6.874 9.974 4.584 18.608 10.796 25.902 18.618 7.286 7.833 12.854 16.812 16.693 26.927 3.832 10.122 5.757 20.909 5.757 32.366v1.146c0 11.457-1.826 22.253-5.469 32.367-3.65 10.124-8.921 19.003-15.829 26.639-6.906 7.646-15.254 13.66-25.042 18.046-9.784 4.396-21.011 6.589-33.675 6.589-12.286.001-23.312-2.29-33.099-6.874zm98.723 69.319c20.334-8.396 37.991-19.854 52.958-34.372 14.966-14.51 26.668-31.41 35.113-50.699 8.438-19.28 12.665-40.003 12.665-62.158v-1.146c0-22.146-4.229-42.869-12.665-62.157-8.446-19.281-20.058-36.093-34.827-50.414-14.777-14.321-32.333-25.583-52.671-33.8-20.346-8.208-42.409-12.316-66.199-12.316-24.178 0-46.438 4.207-66.774 12.604-20.346 8.404-37.991 19.861-52.959 34.372-14.965 14.52-26.678 31.419-35.114 50.7-8.445 19.288-12.664 40.012-12.664 62.157v1.146c0 22.153 4.219 42.877 12.664 62.156 8.438 19.29 20.049 36.091 34.828 50.413 14.769 14.319 32.325 25.593 52.672 33.801 20.336 8.209 42.399 12.315 66.198 12.315 24.177.001 46.429-4.206 66.775-12.602z"/>
</svg>